<svg width="148.974121" height="40.000000" viewBox="0 0 148.974 40" fill="none" xmlns="http://www.w3.org/2000/svg" xmlns:xlink="http://www.w3.org/1999/xlink">
	<desc>
			Created with Pixso.
	</desc>
	<defs/>
	<path id="Vector" d="M148.974 39.9678L148.974 39.0992L132.036 39.0992L132.036 20.4231C132.036 20.4231 131.037 14.6031 128.126 12.6052C125.39 10.6942 120.743 12.6052 120.743 12.6052C120.743 12.6052 117.355 13.7344 114.228 16.0798C111.535 18.0778 109.016 21.2917 109.016 21.2917C109.016 21.2917 111.883 20.2059 115.531 19.1201C119.049 18.0343 123.783 16.9485 123.783 16.9485C123.783 16.9485 125.781 12.9527 127.692 13.9082C129.169 14.6465 131.167 20.4231 131.167 20.4231L131.167 39.9678L148.974 39.9678Z" fill="#FFFFFF" fill-opacity="1.000000" fill-rule="nonzero"/>
	<path id="Vector" d="M109.45 22.5948C109.45 22.5948 113.186 20.5969 117.268 19.5544C120.743 18.6424 124.652 18.6858 124.652 18.6858C124.652 18.6858 124.348 22.3776 123.349 23.8978C122.176 25.6351 120.309 25.2007 120.309 25.2007L110.319 26.0694C110.319 26.0694 118.788 25.0704 120.743 23.8978C123.175 22.4645 122.915 19.5544 122.915 19.5544C122.915 19.5544 120.352 19.6414 116.834 20.4231C113.62 21.1615 109.45 22.5948 109.45 22.5948Z" fill="#2B68B1" fill-opacity="1.000000" fill-rule="nonzero"/>
	<path id="Vector" d="M112.057 29.9783C112.057 29.9783 116.617 28.7621 120.309 28.241C122.567 27.937 124.652 27.8066 124.652 27.8066C124.652 27.8066 125.26 32.1065 123.349 36.9275C121.959 40.5324 119.875 39.9678 119.875 39.9678L106.41 39.9678L118.571 38.6648C118.571 38.6648 120.352 37.6224 121.177 35.1902C121.872 33.1054 121.612 29.5439 121.612 29.5439C121.612 29.5439 120.309 29.4571 118.137 29.5439C115.574 29.6743 112.057 29.9783 112.057 29.9783Z" fill="#FFFFFF" fill-opacity="1.000000" fill-rule="nonzero"/>
	<path id="Vector" d="M77.7441 0.878418C77.7441 0.878418 90.5132 0.140076 100.763 0.00976562C107.582 -0.0770874 113.359 0.444092 113.359 0.444092C113.359 0.444092 115.183 0.834961 116.399 2.1814C118.831 4.87421 122.045 10.4336 122.045 10.4336C122.045 10.4336 121.785 10.9548 120.742 11.3022C119.83 11.6063 118.136 11.7366 118.136 11.7366L74.7036 11.3022L119.005 10.4336C119.005 10.4336 116.747 6.13379 115.096 3.9187C113.489 1.79053 112.49 1.74707 112.49 1.74707C112.49 1.74707 108.581 1.44305 102.5 1.31274C92.2939 1.05212 77.7441 0.878418 77.7441 0.878418Z" fill="#FFFFFF" fill-opacity="1.000000" fill-rule="nonzero"/>
	<path id="Vector" d="M72.5327 22.5948C72.5327 22.5948 81.2192 22.1605 88.6025 22.1605C96.2036 22.1605 102.501 22.5948 102.501 22.5948C102.501 22.5948 103.543 22.9857 104.239 23.4634C104.803 23.8543 105.107 24.3321 105.107 24.3321L107.713 27.3724C107.713 27.3724 108.799 28.632 108.582 29.9783C108.365 31.4551 106.845 33.0186 106.845 33.0186L102.936 38.2306C102.936 38.2306 102.458 39.1426 101.198 39.5336C99.6348 40.0113 97.2891 39.9679 97.2891 39.9679L0 39.9679L0 39.0992L98.5923 39.0992C98.5923 39.0992 100.243 38.9689 101.198 38.2306C102.197 37.4488 102.936 36.059 102.936 36.059L105.976 31.7156C105.976 31.7156 106.845 30.4561 106.845 29.544C106.845 28.0673 104.673 25.1573 102.501 23.8978C100.807 22.9423 90.3398 23.0291 90.3398 23.0291L72.5327 22.5948Z" fill="#FFFFFF" fill-opacity="1.000000" fill-rule="nonzero"/>
	<path id="Vector" d="M18.4585 6.82861C16.0698 5.17816 13.6372 4.48328 10.3799 4.48328C6.38428 4.48328 5.42871 5.52563 5.42871 6.65491C5.42871 7.82758 6.51465 8.13159 8.07812 8.30536L14.2021 9.00024C18.5454 9.52148 21.2383 11.3456 21.2383 15.1243C21.2383 19.6847 16.7646 21.7695 10.6406 21.7695C6.47119 21.7695 3.34375 20.9008 0.0864258 18.4686L2.2583 14.9071C5.08105 16.8616 7.81738 17.7302 11.1616 17.7302C14.4194 17.7302 16.7646 16.905 16.7646 15.1677C16.7646 14.0385 16.1567 13.5173 14.4194 13.3001L7.55664 12.5183C3.38721 12.0406 0.824707 10.4335 0.824707 6.61145C0.824707 2.31165 5.12451 0.313721 10.293 0.313721C14.1152 0.313721 17.416 0.96521 20.5864 3.354L18.4585 6.82861Z" fill="#2B68B1" fill-opacity="1.000000" fill-rule="nonzero"/>
	<path id="Vector" d="M36.5703 0.878418C41.3916 0.878418 44.9966 4.09241 44.9966 8.87006C44.9966 11.9972 43.4326 14.386 41.0439 15.6456L44.1714 21.2484L39.1328 21.2484L36.7441 16.6879L29.1436 16.6879L29.1436 21.2918L24.5396 21.2918L24.5396 0.878418L36.5703 0.878418ZM29.1436 12.5618L36.3965 12.5618C38.7422 12.5618 40.3926 11.2589 40.3926 8.91345C40.3926 6.56812 38.7856 5.09137 36.3965 5.09137L29.1436 5.09137L29.1436 12.5618Z" fill="#2B68B1" fill-opacity="1.000000" fill-rule="nonzero"/>
	<path id="Vector" d="M65.8013 7.91449C64.2378 5.6994 62.2397 4.48328 58.9824 4.48328C54.8999 4.48328 52.207 7.08923 52.207 11.0851C52.207 15.0374 54.9868 17.6868 58.9824 17.6868C62.2397 17.6868 64.2812 16.4707 65.8013 14.2557L69.3628 16.3404C67.2778 19.9019 63.8032 21.8129 59.0259 21.8129C52.5107 21.8129 47.603 17.7303 47.603 11.0851C47.603 4.43988 52.5977 0.357178 59.0259 0.357178C63.8032 0.357178 67.2778 2.22479 69.3628 5.82971L65.8013 7.91449Z" fill="#2B68B1" fill-opacity="1.000000" fill-rule="nonzero"/>
	<path id="Vector" d="M4.2998 30.847C3.77832 30.4995 3.25732 30.3692 2.60596 30.3692C1.78027 30.3692 1.56348 30.5864 1.56348 30.847C1.56348 31.1075 1.78027 31.151 2.12793 31.1944L3.43115 31.3247C4.34326 31.455 4.90771 31.8459 4.90771 32.6277C4.90771 33.5833 3.95215 34.0176 2.64893 34.0176C1.78027 34.0176 1.08545 33.8438 0.434082 33.3226L0.911621 32.5843C1.52002 33.0186 2.08447 33.1923 2.7793 33.1923C3.47461 33.1923 3.95215 33.0186 3.95215 32.6711C3.95215 32.454 3.82178 32.3237 3.47461 32.2802L2.04102 32.1065C1.17236 32.0197 0.60791 31.6722 0.60791 30.847C0.60791 29.9349 1.52002 29.5005 2.60596 29.5005C3.43115 29.5005 4.12598 29.6309 4.77734 30.152L4.2998 30.847Z" fill="#FFFFFF" fill-opacity="1.000000" fill-rule="nonzero"/>
	<path id="Vector" d="M8.90283 29.5874C9.90186 29.5874 10.6836 30.2823 10.6836 31.2812C10.6836 32.2802 9.90186 32.9317 8.90283 32.9317L7.33936 32.9317L7.33936 33.8872L6.34033 33.8872L6.34033 29.5439L8.90283 29.5439L8.90283 29.5874ZM7.33936 32.063L8.85938 32.063C9.38086 32.063 9.68457 31.8024 9.68457 31.2812C9.68457 30.7601 9.3374 30.4561 8.85938 30.4561L7.33936 30.4561L7.33936 32.063Z" fill="#FFFFFF" fill-opacity="1.000000" fill-rule="nonzero"/>
	<path id="Vector" d="M16.0264 29.5874L16.0264 30.4561L13.0732 30.4561L13.0732 31.2378L15.7227 31.2378L15.7227 32.1064L13.0732 32.1064L13.0732 32.9751L16.1133 32.9751L16.1133 33.8872L12.0742 33.8872L12.0742 29.5439L16.0264 29.5439L16.0264 29.5874Z" fill="#FFFFFF" fill-opacity="1.000000" fill-rule="nonzero"/>
	<path id="Vector" d="M21.3257 31.064C20.978 30.5863 20.5869 30.3257 19.8921 30.3257C19.0234 30.3257 18.459 30.8903 18.459 31.7155C18.459 32.5408 19.0669 33.1054 19.8921 33.1054C20.5869 33.1054 21.0215 32.8448 21.3257 32.367L22.064 32.8013C21.6294 33.5397 20.8911 33.9741 19.8921 33.9741C18.5024 33.9741 17.46 33.1054 17.46 31.7155C17.46 30.3257 18.5024 29.457 19.8921 29.457C20.8911 29.457 21.6294 29.848 22.064 30.6297L21.3257 31.064Z" fill="#FFFFFF" fill-opacity="1.000000" fill-rule="nonzero"/>
	<path id="Vector" d="M24.54 29.5875L24.54 33.9307L23.541 33.9307L23.541 29.5875L24.54 29.5875Z" fill="#FFFFFF" fill-opacity="1.000000" fill-rule="nonzero"/>
	<path id="Vector" d="M29.4038 29.5875L31.228 33.9307L30.1855 33.9307L29.9248 33.2792L27.2759 33.2792L27.0151 33.9307L25.9727 33.9307L27.8403 29.5875L29.4038 29.5875ZM27.623 32.4106L29.5342 32.4106L28.7524 30.4561L28.4048 30.4561L27.623 32.4106Z" fill="#FFFFFF" fill-opacity="1.000000" fill-rule="nonzero"/>
	<path id="Vector" d="M33.6602 29.5874L33.6602 33.0186L36.6567 33.0186L36.6567 33.8872L32.7046 33.8872L32.7046 29.5439L33.6602 29.5439L33.6602 29.5874Z" fill="#FFFFFF" fill-opacity="1.000000" fill-rule="nonzero"/>
	<path id="Vector" d="M43.5625 29.5874C44.5615 29.5874 45.3433 30.2823 45.3433 31.2812C45.3433 31.9327 44.9956 32.4539 44.5181 32.7145L45.1694 33.8872L44.127 33.8872L43.606 32.9317L41.999 32.9317L41.999 33.8872L41 33.8872L41 29.5439L43.5625 29.5439L43.5625 29.5874ZM41.999 32.063L43.519 32.063C44.0405 32.063 44.3442 31.8024 44.3442 31.2812C44.3442 30.7601 43.9971 30.4561 43.519 30.4561L41.999 30.4561L41.999 32.063Z" fill="#FFFFFF" fill-opacity="1.000000" fill-rule="nonzero"/>
	<path id="Vector" d="M50.729 29.5874L50.729 30.4561L47.7759 30.4561L47.7759 31.2378L50.4253 31.2378L50.4253 32.1064L47.7759 32.1064L47.7759 32.9751L50.8159 32.9751L50.8159 33.8872L46.7769 33.8872L46.7769 29.5439L50.729 29.5439L50.729 29.5874Z" fill="#FFFFFF" fill-opacity="1.000000" fill-rule="nonzero"/>
	<path id="Vector" d="M53.2485 29.5875L55.8545 32.4974L55.8545 29.5875L56.8101 29.5875L56.8101 33.9307L55.8979 33.9307L53.292 31.0208L53.292 33.9307L52.3364 33.9307L52.3364 29.5875L53.2485 29.5875Z" fill="#FFFFFF" fill-opacity="1.000000" fill-rule="nonzero"/>
	<path id="Vector" d="M62.7168 29.5875L62.7168 30.4561L60.936 30.4561L60.936 33.8873L59.9805 33.8873L59.9805 30.4561L58.1997 30.4561L58.1997 29.5875L62.7168 29.5875Z" fill="#FFFFFF" fill-opacity="1.000000" fill-rule="nonzero"/>
	<path id="Vector" d="M66.7124 29.5875L68.5366 33.9307L67.4941 33.9307L67.2334 33.2792L64.5845 33.2792L64.3237 33.9307L63.2812 33.9307L65.1489 29.5875L66.7124 29.5875ZM64.9316 32.4106L66.8428 32.4106L66.061 30.4561L65.7134 30.4561L64.9316 32.4106Z" fill="#FFFFFF" fill-opacity="1.000000" fill-rule="nonzero"/>
	<path id="Vector" d="M70.9692 29.5874L70.9692 33.0186L73.9658 33.0186L73.9658 33.8872L70.0137 33.8872L70.0137 29.5439L70.9692 29.5439L70.9692 29.5874Z" fill="#FFFFFF" fill-opacity="1.000000" fill-rule="nonzero"/>
	<path id="Vector" d="M82.1309 31.064C81.7832 30.5863 81.3921 30.3257 80.6973 30.3257C79.8286 30.3257 79.2642 30.8903 79.2642 31.7155C79.2642 32.5408 79.8721 33.1054 80.6973 33.1054C81.3921 33.1054 81.8267 32.8448 82.1309 32.367L82.8691 32.8013C82.4346 33.5397 81.6963 33.9741 80.6973 33.9741C79.3076 33.9741 78.2651 33.1054 78.2651 31.7155C78.2651 30.3257 79.3076 29.457 80.6973 29.457C81.6963 29.457 82.4346 29.848 82.8691 30.6297L82.1309 31.064Z" fill="#FFFFFF" fill-opacity="1.000000" fill-rule="nonzero"/>
	<path id="Vector" d="M87.4297 29.5875L89.2539 33.9307L88.2114 33.9307L87.9507 33.2792L85.3018 33.2792L85.041 33.9307L83.9985 33.9307L85.8662 29.5875L87.4297 29.5875ZM85.6489 32.4106L87.5601 32.4106L86.7783 30.4561L86.4307 30.4561L85.6489 32.4106Z" fill="#FFFFFF" fill-opacity="1.000000" fill-rule="nonzero"/>
	<path id="Vector" d="M93.2061 29.5874C94.2051 29.5874 94.9868 30.2823 94.9868 31.2812C94.9868 31.9327 94.6392 32.4539 94.1616 32.7145L94.813 33.8872L93.7705 33.8872L93.2495 32.9317L91.6426 32.9317L91.6426 33.8872L90.6436 33.8872L90.6436 29.5439L93.2061 29.5439L93.2061 29.5874ZM91.6426 32.063L93.1626 32.063C93.6841 32.063 93.9878 31.8024 93.9878 31.2812C93.9878 30.7601 93.6406 30.4561 93.1626 30.4561L91.6426 30.4561L91.6426 32.063Z" fill="#FFFFFF" fill-opacity="1.000000" fill-rule="nonzero"/>
</svg>
