<svg width="216.012695" height="58.000000" viewBox="0 0 216.013 58" fill="none" xmlns="http://www.w3.org/2000/svg" xmlns:xlink="http://www.w3.org/1999/xlink">
	<desc>
			Created with Pixso.
	</desc>
	<defs/>
	<path id="Vector" d="M216.013 57.9534L216.013 56.6939L191.451 56.6939L191.451 29.6136C191.451 29.6136 190.003 21.1746 185.783 18.2776C181.816 15.5067 175.077 18.2776 175.077 18.2776C175.077 18.2776 170.165 19.915 165.63 23.3159C161.726 26.2128 158.073 30.8731 158.073 30.8731C158.073 30.8731 162.23 29.2987 167.52 27.7242C172.621 26.1498 179.485 24.5754 179.485 24.5754C179.485 24.5754 182.382 18.7814 185.153 20.167C187.295 21.2376 190.192 29.6136 190.192 29.6136L190.192 57.9534L216.013 57.9534Z" fill="#0F1014" fill-opacity="1.000000" fill-rule="nonzero"/>
	<path id="Vector" d="M158.703 32.7625C158.703 32.7625 164.119 29.8655 170.039 28.354C175.077 27.0315 180.745 27.0945 180.745 27.0945C180.745 27.0945 180.304 32.4476 178.856 34.6518C177.155 37.1708 174.447 36.5411 174.447 36.5411L159.963 37.8007C159.963 37.8007 172.243 36.3522 175.077 34.6518C178.604 32.5735 178.226 28.354 178.226 28.354C178.226 28.354 174.51 28.48 169.409 29.6136C164.749 30.6842 158.703 32.7625 158.703 32.7625Z" fill="#2B68B1" fill-opacity="1.000000" fill-rule="nonzero"/>
	<path id="Vector" d="M162.482 43.4686C162.482 43.4686 169.095 41.7052 174.448 40.9495C177.723 40.5086 180.746 40.3197 180.746 40.3197C180.746 40.3197 181.627 46.5544 178.856 53.545C176.841 58.7721 173.818 57.9534 173.818 57.9534L154.295 57.9534L171.929 56.0641C171.929 56.0641 174.511 54.5526 175.707 51.0259C176.715 48.0029 176.337 42.8388 176.337 42.8388C176.337 42.8388 174.448 42.7128 171.299 42.8388C167.583 43.0277 162.482 43.4686 162.482 43.4686Z" fill="#0F1014" fill-opacity="1.000000" fill-rule="nonzero"/>
	<path id="Vector" d="M112.729 1.27368C112.729 1.27368 131.245 0.203064 146.108 0.0141602C155.995 -0.111816 164.371 0.643921 164.371 0.643921C164.371 0.643921 167.016 1.21075 168.78 3.16302C172.306 7.06763 176.967 15.1287 176.967 15.1287C176.967 15.1287 176.589 15.8845 175.077 16.3883C173.755 16.8292 171.299 17.0181 171.299 17.0181L108.321 16.3883L172.558 15.1287C172.558 15.1287 169.284 8.89398 166.89 5.68213C164.56 2.59625 163.112 2.53326 163.112 2.53326C163.112 2.53326 157.444 2.09241 148.627 1.9035C133.827 1.52563 112.729 1.27368 112.729 1.27368Z" fill="#0F1014" fill-opacity="1.000000" fill-rule="nonzero"/>
	<path id="Vector" d="M105.172 32.7624C105.172 32.7624 117.768 32.1326 128.474 32.1326C139.495 32.1326 148.627 32.7624 148.627 32.7624C148.627 32.7624 150.138 33.3292 151.146 34.022C151.964 34.5887 152.405 35.2815 152.405 35.2815L156.184 39.6899C156.184 39.6899 157.758 41.5163 157.444 43.4686C157.129 45.6098 154.924 47.877 154.924 47.877L149.256 55.4343C149.256 55.4343 148.564 56.7568 146.737 57.3236C144.47 58.0164 141.069 57.9534 141.069 57.9534L0 57.9534L0 56.6938L142.959 56.6938C142.959 56.6938 145.352 56.5049 146.737 55.4343C148.186 54.3007 149.256 52.2854 149.256 52.2854L153.665 45.9877C153.665 45.9877 154.924 44.1613 154.924 42.8388C154.924 40.6976 151.776 36.4781 148.627 34.6517C146.171 33.2662 130.993 33.3922 130.993 33.3922L105.172 32.7624Z" fill="#0F1014" fill-opacity="1.000000" fill-rule="nonzero"/>
	<path id="Vector" d="M26.7656 9.90155C23.3018 7.50842 19.7749 6.50079 15.0518 6.50079C9.25781 6.50079 7.87207 8.01227 7.87207 9.64966C7.87207 11.35 9.44678 11.7909 11.7139 12.0428L20.5938 13.0504C26.8916 13.8062 30.7959 16.4512 30.7959 21.9303C30.7959 28.5429 24.3091 31.5658 15.4297 31.5658C9.38379 31.5658 4.84912 30.3063 0.125977 26.7795L3.2749 21.6154C7.36816 24.4493 11.3359 25.7089 16.1851 25.7089C20.9087 25.7089 24.3091 24.5123 24.3091 21.9932C24.3091 20.3558 23.4277 19.6001 20.9087 19.2852L10.958 18.1516C4.91211 17.4589 1.19678 15.1287 1.19678 9.58667C1.19678 3.35193 7.43115 0.454956 14.9258 0.454956C20.4678 0.454956 25.2539 1.3996 29.8516 4.8634L26.7656 9.90155Z" fill="#2B68B1" fill-opacity="1.000000" fill-rule="nonzero"/>
	<path id="Vector" d="M53.0273 1.27368C60.0176 1.27368 65.2451 5.93402 65.2451 12.8615C65.2451 17.3959 62.9775 20.8597 59.5142 22.686L64.0483 30.8101L56.7432 30.8101L53.2793 24.1974L42.2583 24.1974L42.2583 30.8731L35.5825 30.8731L35.5825 1.27368L53.0273 1.27368ZM42.2583 18.2146L52.7754 18.2146C56.1763 18.2146 58.5693 16.3253 58.5693 12.9245C58.5693 9.52374 56.2393 7.38251 52.7754 7.38251L42.2583 7.38251L42.2583 18.2146Z" fill="#2B68B1" fill-opacity="1.000000" fill-rule="nonzero"/>
	<path id="Vector" d="M95.4111 11.476C93.1436 8.26416 90.2471 6.50079 85.5234 6.50079C79.6035 6.50079 75.6992 10.2794 75.6992 16.0734C75.6992 21.8043 79.7295 25.6459 85.5234 25.6459C90.2471 25.6459 93.2065 23.8826 95.4111 20.6707L100.575 23.6937C97.5522 28.8578 92.5142 31.6288 85.5864 31.6288C76.1396 31.6288 69.0234 25.7089 69.0234 16.0734C69.0234 6.43781 76.2656 0.517944 85.5864 0.517944C92.5142 0.517944 97.5522 3.22595 100.575 8.45312L95.4111 11.476Z" fill="#2B68B1" fill-opacity="1.000000" fill-rule="nonzero"/>
	<path id="Vector" d="M6.23486 44.7282C5.479 44.2244 4.72363 44.0354 3.77881 44.0354C2.58203 44.0354 2.26709 44.3503 2.26709 44.7282C2.26709 45.106 2.58203 45.169 3.08594 45.232L4.9751 45.421C6.29785 45.6099 7.1167 46.1767 7.1167 47.3102C7.1167 48.6957 5.73096 49.3255 3.8418 49.3255C2.58203 49.3255 1.57471 49.0736 0.629883 48.3179L1.32275 47.2473C2.2041 47.8771 3.02295 48.129 4.03076 48.129C5.03809 48.129 5.73096 47.8771 5.73096 47.3732C5.73096 47.0583 5.54199 46.8694 5.03809 46.8065L2.95996 46.5545C1.70068 46.4286 0.881836 45.9247 0.881836 44.7282C0.881836 43.4056 2.2041 42.7759 3.77881 42.7759C4.9751 42.7759 5.98291 42.9648 6.92773 43.7205L6.23486 44.7282Z" fill="#0F1013" fill-opacity="1.000000" fill-rule="nonzero"/>
	<path id="Vector" d="M12.9106 42.9019C14.3589 42.9019 15.4927 43.9095 15.4927 45.358C15.4927 46.8065 14.3589 47.7511 12.9106 47.7511L10.6431 47.7511L10.6431 49.1366L9.19482 49.1366L9.19482 42.8389L12.9106 42.8389L12.9106 42.9019ZM10.6431 46.4916L12.8477 46.4916C13.603 46.4916 14.0439 46.1137 14.0439 45.358C14.0439 44.6022 13.54 44.1614 12.8477 44.1614L10.6431 44.1614L10.6431 46.4916Z" fill="#0F1013" fill-opacity="1.000000" fill-rule="nonzero"/>
	<path id="Vector" d="M23.2383 42.9019L23.2383 44.1614L18.9556 44.1614L18.9556 45.295L22.7974 45.295L22.7974 46.5545L18.9556 46.5545L18.9556 47.8141L23.3643 47.8141L23.3643 49.1366L17.5073 49.1366L17.5073 42.8389L23.2383 42.8389L23.2383 42.9019Z" fill="#0F1013" fill-opacity="1.000000" fill-rule="nonzero"/>
	<path id="Vector" d="M30.9219 45.0431C30.418 44.3503 29.8511 43.9724 28.8438 43.9724C27.584 43.9724 26.7651 44.7911 26.7651 45.9877C26.7651 47.1843 27.647 48.003 28.8438 48.003C29.8511 48.003 30.481 47.6251 30.9219 46.9324L31.9927 47.5621C31.3628 48.6328 30.292 49.2626 28.8438 49.2626C26.8281 49.2626 25.3169 48.003 25.3169 45.9877C25.3169 43.9725 26.8281 42.7129 28.8438 42.7129C30.292 42.7129 31.3628 43.2797 31.9927 44.4133L30.9219 45.0431Z" fill="#0F1013" fill-opacity="1.000000" fill-rule="nonzero"/>
	<path id="Vector" d="M35.582 42.9018L35.582 49.1995L34.1338 49.1995L34.1338 42.9018L35.582 42.9018Z" fill="#0F1013" fill-opacity="1.000000" fill-rule="nonzero"/>
	<path id="Vector" d="M42.6353 42.9018L45.2803 49.1995L43.769 49.1995L43.3911 48.2549L39.5493 48.2549L39.1714 49.1995L37.6602 49.1995L40.3682 42.9018L42.6353 42.9018ZM40.0532 46.9953L42.8242 46.9953L41.6909 44.1613L41.187 44.1613L40.0532 46.9953Z" fill="#0F1013" fill-opacity="1.000000" fill-rule="nonzero"/>
	<path id="Vector" d="M48.8076 42.9019L48.8076 47.8771L53.1528 47.8771L53.1528 49.1366L47.4219 49.1366L47.4219 42.8389L48.8076 42.8389L48.8076 42.9019Z" fill="#0F1013" fill-opacity="1.000000" fill-rule="nonzero"/>
	<path id="Vector" d="M63.1665 42.9019C64.6147 42.9019 65.7485 43.9095 65.7485 45.358C65.7485 46.3026 65.2446 47.0583 64.5518 47.4362L65.4966 49.1366L63.9849 49.1366L63.2295 47.7511L60.8994 47.7511L60.8994 49.1366L59.4507 49.1366L59.4507 42.8389L63.1665 42.8389L63.1665 42.9019ZM60.8994 46.4916L63.1035 46.4916C63.8589 46.4916 64.2998 46.1137 64.2998 45.358C64.2998 44.6022 63.7959 44.1614 63.1035 44.1614L60.8994 44.1614L60.8994 46.4916Z" fill="#0F1013" fill-opacity="1.000000" fill-rule="nonzero"/>
	<path id="Vector" d="M73.5576 42.9019L73.5576 44.1614L69.2749 44.1614L69.2749 45.295L73.1167 45.295L73.1167 46.5545L69.2749 46.5545L69.2749 47.8141L73.6836 47.8141L73.6836 49.1366L67.8267 49.1366L67.8267 42.8389L73.5576 42.8389L73.5576 42.9019Z" fill="#0F1013" fill-opacity="1.000000" fill-rule="nonzero"/>
	<path id="Vector" d="M77.2104 42.9018L80.9888 47.1213L80.9888 42.9018L82.3745 42.9018L82.3745 49.1995L81.0518 49.1995L77.2734 44.98L77.2734 49.1995L75.8877 49.1995L75.8877 42.9018L77.2104 42.9018Z" fill="#0F1013" fill-opacity="1.000000" fill-rule="nonzero"/>
	<path id="Vector" d="M90.9395 42.9018L90.9395 44.1613L88.3574 44.1613L88.3574 49.1365L86.9717 49.1365L86.9717 44.1613L84.3896 44.1613L84.3896 42.9018L90.9395 42.9018Z" fill="#0F1013" fill-opacity="1.000000" fill-rule="nonzero"/>
	<path id="Vector" d="M96.7334 42.9018L99.3784 49.1995L97.8672 49.1995L97.4893 48.2549L93.6475 48.2549L93.2695 49.1995L91.7583 49.1995L94.4663 42.9018L96.7334 42.9018ZM94.1514 46.9953L96.9224 46.9953L95.7891 44.1613L95.2852 44.1613L94.1514 46.9953Z" fill="#0F1013" fill-opacity="1.000000" fill-rule="nonzero"/>
	<path id="Vector" d="M102.905 42.9019L102.905 47.8771L107.25 47.8771L107.25 49.1366L101.52 49.1366L101.52 42.8389L102.905 42.8389L102.905 42.9019Z" fill="#0F1013" fill-opacity="1.000000" fill-rule="nonzero"/>
	<path id="Vector" d="M119.09 45.0431C118.586 44.3503 118.02 43.9724 117.012 43.9724C115.752 43.9724 114.934 44.7911 114.934 45.9877C114.934 47.1843 115.815 48.003 117.012 48.003C118.02 48.003 118.649 47.6251 119.09 46.9324L120.161 47.5621C119.531 48.6328 118.46 49.2626 117.012 49.2626C114.997 49.2626 113.485 48.003 113.485 45.9877C113.485 43.9725 114.997 42.7129 117.012 42.7129C118.46 42.7129 119.531 43.2797 120.161 44.4133L119.09 45.0431Z" fill="#0F1013" fill-opacity="1.000000" fill-rule="nonzero"/>
	<path id="Vector" d="M126.773 42.9018L129.418 49.1995L127.907 49.1995L127.529 48.2549L123.688 48.2549L123.31 49.1995L121.798 49.1995L124.506 42.9018L126.773 42.9018ZM124.191 46.9953L126.962 46.9953L125.829 44.1613L125.325 44.1613L124.191 46.9953Z" fill="#0F1013" fill-opacity="1.000000" fill-rule="nonzero"/>
	<path id="Vector" d="M135.15 42.9019C136.598 42.9019 137.732 43.9095 137.732 45.358C137.732 46.3026 137.228 47.0583 136.535 47.4362L137.48 49.1366L135.968 49.1366L135.213 47.7511L132.882 47.7511L132.882 49.1366L131.434 49.1366L131.434 42.8389L135.15 42.8389L135.15 42.9019ZM132.882 46.4916L135.087 46.4916C135.842 46.4916 136.283 46.1137 136.283 45.358C136.283 44.6022 135.779 44.1614 135.087 44.1614L132.882 44.1614L132.882 46.4916Z" fill="#0F1013" fill-opacity="1.000000" fill-rule="nonzero"/>
</svg>
