<svg width="32.000000" height="17.000000" viewBox="0 0 32 17" fill="none" xmlns="http://www.w3.org/2000/svg" xmlns:xlink="http://www.w3.org/1999/xlink">
	<desc>
			Created with Pixso.
	</desc>
	<defs/>
	<path id="Vector" d="M22.8042 0.344727C22.6973 0.453125 22.6118 0.582031 22.5537 0.723999C22.4961 0.865967 22.4658 1.01831 22.4658 1.17224C22.4658 1.32605 22.4961 1.47839 22.5537 1.62036C22.6118 1.76245 22.6973 1.89136 22.8042 1.99963L28.0649 7.36072L1.14355 7.36072C0.840332 7.36072 0.549316 7.48352 0.334961 7.70215C0.120605 7.92065 0 8.21716 0 8.52625C0 8.83533 0.120605 9.13171 0.334961 9.35034C0.549316 9.56885 0.840332 9.69165 1.14355 9.69165L28.042 9.69165L22.8042 15.0178C22.5913 15.2362 22.4717 15.5315 22.4717 15.8395C22.4717 16.1473 22.5913 16.4427 22.8042 16.6611C23.0186 16.8782 23.3086 17 23.6104 17C23.9126 17 24.2026 16.8782 24.417 16.6611L31.6904 9.24878C31.7881 9.15308 31.8662 9.03821 31.9194 8.91101C31.9727 8.78381 32 8.64697 32 8.50879C32 8.37048 31.9727 8.23364 31.9194 8.10645C31.8662 7.97925 31.7881 7.86438 31.6904 7.76868L24.4282 0.344727C24.3218 0.235474 24.1953 0.148804 24.0562 0.0895996C23.9165 0.0305176 23.7671 0 23.6162 0C23.4653 0 23.3159 0.0305176 23.1763 0.0895996C23.0371 0.148804 22.9106 0.235474 22.8042 0.344727Z" fill="#FFFFFF" fill-opacity="1.000000" fill-rule="nonzero"/>
</svg>
